<svg aria-hidden="true" style="position: absolute; width: 0; height: 0; overflow: hidden;" version="1.1" xmlns="http://www.w3.org/2000/svg" xmlns:xlink="http://www.w3.org/1999/xlink">
<defs>
<symbol id="icon-ed" viewBox="0 0 32 32">
<path d="M24.063 4.047c-0.992 0-1.93 0.492-2.711 1.266l-16.227 16.141-2.711 8.117 8.117-2.703 0.172-0.164 16.070-15.969c0.773-0.781 1.258-1.719 1.258-2.711s-0.484-1.93-1.258-2.711c-0.781-0.773-1.719-1.266-2.711-1.266zM20.055 9.422l2.586 2.594-13.188 13.109-3.875 1.289 1.297-3.883z"></path>
</symbol>
<symbol id="icon-new" viewBox="0 0 32 32">
<path d="M9 4c-2.75 0-5 2.25-5 5v3h2v-3c0-1.672 1.328-3 3-3h14c1.672 0 3 1.328 3 3v3h-4l5 5 5-5h-4v-3c0-2.75-2.25-5-5-5zM5 15l-5 5h4v3c0 2.75 2.25 5 5 5h14c2.75 0 5-2.25 5-5v-3h-2v3c0 1.672-1.328 3-3 3h-14c-1.672 0-3-1.328-3-3v-3h4z"></path>
</symbol>
<symbol id="icon-fb" viewBox="0 0 32 32">
<path d="M16 1.28c-8.098 0-14.72 6.143-14.72 13.76 0 4.165 2.005 7.863 5.12 10.38v5.72l0.94-0.5 4.62-2.4c1.29 0.345 2.633 0.56 4.040 0.56 8.098 0 14.72-6.143 14.72-13.76s-6.622-13.76-14.72-13.76zM16 2.56c7.453 0 13.44 5.605 13.44 12.48s-5.988 12.48-13.44 12.48c-1.385 0-2.725-0.2-3.98-0.56l-0.24-0.060-0.22 0.12-3.88 2.020v-4.2l-0.24-0.18c-2.985-2.297-4.88-5.755-4.88-9.62 0-6.875 5.987-12.48 13.44-12.48zM14.54 11.34l-7.7 8.16 6.92-3.88 3.7 3.96 7.6-8.24-6.74 3.78z"></path>
</symbol>
<symbol id="icon-wa" viewBox="0 0 32 32">
<path d="M16.016 2.667c-7.341 0-13.318 5.971-13.32 13.313-0.001 2.347 0.613 4.638 1.779 6.656l-1.807 6.698 6.977-1.648c1.945 1.061 4.135 1.618 6.365 1.62h0.005c7.34 0 13.314-5.973 13.318-13.313 0.003-3.559-1.381-6.905-3.896-9.422-2.515-2.516-5.857-3.902-9.419-3.904zM16.013 5.333c2.848 0.001 5.524 1.112 7.536 3.122 2.012 2.013 3.117 4.689 3.115 7.534-0.003 5.872-4.779 10.648-10.654 10.648-1.777-0.001-3.538-0.448-5.089-1.294l-0.898-0.49-3.617 0.854 0.641-2.38 0.289-1.068-0.552-0.958c-0.931-1.611-1.423-3.452-1.422-5.323 0.003-5.869 4.78-10.646 10.651-10.646zM11.302 9.833c-0.223 0-0.583 0.083-0.888 0.417-0.305 0.332-1.167 1.136-1.167 2.773s1.193 3.22 1.359 3.443c0.165 0.221 2.302 3.688 5.685 5.021 2.811 1.108 3.382 0.889 3.992 0.833 0.611-0.055 1.97-0.803 2.247-1.581s0.278-1.446 0.195-1.583c-0.083-0.139-0.305-0.221-0.638-0.388-0.332-0.167-1.968-0.97-2.273-1.081s-0.529-0.167-0.75 0.167c-0.221 0.333-0.857 1.081-1.052 1.302-0.195 0.223-0.388 0.253-0.721 0.086-0.333-0.168-1.405-0.52-2.677-1.654-0.989-0.881-1.657-1.969-1.852-2.302-0.193-0.332-0.018-0.514 0.148-0.68 0.149-0.149 0.331-0.389 0.497-0.583 0.165-0.195 0.223-0.333 0.333-0.555s0.054-0.417-0.029-0.583c-0.083-0.167-0.73-1.81-1.026-2.469-0.249-0.553-0.513-0.566-0.75-0.576-0.193-0.008-0.414-0.008-0.635-0.008z"></path>
</symbol>
<symbol id="icon-ms" viewBox="0 0 32 32">
<path d="M8.96 2.56c-3.527 0-6.4 2.873-6.4 6.4v14.080c0 3.527 2.873 6.4 6.4 6.4h14.080c3.527 0 6.4-2.873 6.4-6.4v-14.080c0-3.527-2.873-6.4-6.4-6.4h-14.080zM8.96 3.84h14.080c2.836 0 5.12 2.284 5.12 5.12v14.080c0 2.836-2.284 5.12-5.12 5.12h-14.080c-2.836 0-5.12-2.284-5.12-5.12v-14.080c0-2.836 2.284-5.12 5.12-5.12zM16 7.040c-5.244 0-9.6 3.664-9.6 8.296 0 2.854 1.716 5.3 4.206 6.782-0.379 0.602-0.857 1.225-1.454 1.808-0.119 0.116-0.192 0.278-0.192 0.457 0 0.354 0.287 0.64 0.64 0.64 0.039 0 0.077-0.003 0.115-0.010l-0.004 0.001c1.477-0.262 3.021-0.805 4.291-1.591 0.645 0.12 1.305 0.21 1.998 0.21 5.244 0 9.6-3.664 9.6-8.296s-4.356-8.296-9.6-8.296zM16 8.32c4.653 0 8.32 3.193 8.32 7.016s-3.667 7.016-8.32 7.016c-0.681 0-1.341-0.077-1.981-0.21-0.039-0.008-0.084-0.013-0.129-0.013-0.132 0-0.255 0.040-0.357 0.108l0.002-0.001c-0.593 0.392-1.314 0.715-2.071 0.983 0.235-0.318 0.482-0.631 0.646-0.988 0.037-0.078 0.059-0.171 0.059-0.268 0-0.25-0.143-0.467-0.352-0.572l-0.004-0.002c-2.499-1.234-4.133-3.491-4.133-6.054 0-3.823 3.667-7.016 8.32-7.016z"></path>
</symbol>
<symbol id="icon-yt" viewBox="0 0 32 32">
<path d="M5.76 2.56c-1.76 0-3.2 1.44-3.2 3.2v20.48c0 1.76 1.44 3.2 3.2 3.2h20.48c1.76 0 3.2-1.44 3.2-3.2v-20.48c0-1.76-1.44-3.2-3.2-3.2h-20.48zM5.76 3.84h20.48c1.068 0 1.92 0.852 1.92 1.92v20.48c0 1.068-0.852 1.92-1.92 1.92h-20.48c-1.068 0-1.92-0.852-1.92-1.92v-20.48c0-1.068 0.852-1.92 1.92-1.92zM9.6 5.12c0.265 0.648 1.537 3.444 1.92 4.476v2.564h1.28v-2.56l1.92-4.48h-1.536l-1.024 2.56-1.024-2.56h-1.536zM16 7.040c-0.644 0-1.133 0.176-1.492 0.605-0.277 0.317-0.426 0.825-0.426 1.495l-0.001 0.925c0 0.666 0.132 1.127 0.409 1.441 0.36 0.427 0.942 0.654 1.511 0.654s1.162-0.227 1.523-0.655c0.273-0.314 0.398-0.774 0.398-1.44v-0.929c0-0.671-0.155-1.174-0.427-1.491-0.36-0.429-0.924-0.605-1.492-0.605zM18.56 7.040v3.736c0 0.422 0.063 0.709 0.152 0.894 0.147 0.303 0.442 0.458 0.865 0.471 0.583 0.019 1.021-0.359 1.543-0.861v0.88h1.28v-5.12h-1.28v3.44c-0.291 0.345-0.626 0.651-0.89 0.651-0.175 0-0.358-0.080-0.39-0.251v-3.84h-1.28zM16 8.076c0.353 0 0.64 0.293 0.64 0.654v1.796c0 0.36-0.287 0.654-0.64 0.654s-0.64-0.293-0.64-0.654v-1.796c0-0.36 0.287-0.654 0.64-0.654zM15.994 14.080c0 0-4.294 0-7.161 0.205-0.403 0.045-1.274 0.051-2.055 0.851-0.614 0.602-0.813 1.984-0.813 1.984s-0.205 0.98-0.205 2.599v1.516c0 1.619 0.205 2.599 0.205 2.599s0.198 1.382 0.813 1.99c0.781 0.794 1.804 0.768 2.259 0.851 1.638 0.154 6.964 0.205 6.964 0.205s4.3-0.006 7.168-0.211c0.403-0.045 1.274-0.051 2.055-0.851 0.614-0.602 0.813-1.984 0.813-1.984s0.205-0.98 0.205-2.599v-1.516c0-1.619-0.205-2.599-0.205-2.599s-0.198-1.382-0.813-1.984c-0.781-0.8-1.652-0.806-2.055-0.851-2.867-0.205-7.161-0.205-7.161-0.205h-0.012zM7.68 16.64h3.84v1.28h-1.28v6.4h-1.28v-6.4h-1.28v-1.28zM16 16.64h1.28v2.804c0.48-0.563 0.735-0.89 1.356-0.884 0.486 0.006 0.878 0.282 1.038 0.781 0.083 0.269 0.166 0.749 0.166 1.383v1.76c-0.006 0.563-0.064 0.812-0.141 1.081-0.16 0.499-0.576 0.755-1.063 0.755-0.429 0-0.953-0.301-1.356-0.8v0.8h-1.28v-7.68zM11.52 18.56h1.28v4.41c0.032 0.186 0.166 0.255 0.332 0.255 0.256 0 0.666-0.281 0.947-0.652v-4.012h1.28v5.76h-1.28v-0.876c-0.506 0.55-1.108 0.876-1.575 0.876-0.41 0-0.697-0.179-0.838-0.505-0.083-0.205-0.148-0.513-0.148-0.974v-4.281zM22.419 18.56c0.634 0 1.139 0.205 1.491 0.589 0.262 0.282 0.41 0.717 0.41 1.319v1.293h-2.56v1.152c0 0.294 0.288 0.538 0.64 0.538s0.64-0.243 0.64-0.538v-0.512h1.28c0 0.326-0.039 0.601-0.045 0.704-0.045 0.224-0.146 0.43-0.3 0.609-0.346 0.41-0.865 0.608-1.524 0.608-0.666 0-1.165-0.192-1.53-0.576-0.269-0.275-0.441-0.697-0.441-1.293v-1.959c0-0.602 0.154-1.062 0.429-1.344 0.365-0.384 0.864-0.589 1.51-0.589zM22.4 19.488c-0.352 0-0.64 0.237-0.64 0.538v0.845h1.28v-0.845c0-0.301-0.288-0.538-0.64-0.538zM18.061 19.68c-0.099 0-0.244 0.050-0.389 0.125-0.072 0.038-0.145 0.081-0.212 0.129s-0.129 0.099-0.18 0.15v2.796c0.051 0.051 0.113 0.099 0.18 0.14 0.202 0.124 0.452 0.199 0.601 0.199 0.13 0 0.231-0.032 0.309-0.108 0.026-0.025 0.050-0.056 0.070-0.091 0.041-0.071 0.070-0.163 0.090-0.279s0.030-0.257 0.030-0.425v-1.753c0-0.168-0.010-0.308-0.030-0.422-0.040-0.229-0.119-0.357-0.245-0.418-0.063-0.030-0.137-0.044-0.224-0.044z"></path>
</symbol>
<symbol id="icon-google-plus2" viewBox="0 0 32 32">
<path d="M29 0h-26c-1.65 0-3 1.35-3 3v26c0 1.65 1.35 3 3 3h26c1.65 0 3-1.35 3-3v-26c0-1.65-1.35-3-3-3zM12 24c-4.425 0-8-3.575-8-8s3.575-8 8-8c2.162 0 3.969 0.787 5.363 2.094l-2.175 2.088c-0.594-0.569-1.631-1.231-3.188-1.231-2.731 0-4.963 2.263-4.963 5.050s2.231 5.050 4.963 5.050c3.169 0 4.356-2.275 4.538-3.45h-4.537v-2.744h7.556c0.069 0.4 0.125 0.8 0.125 1.325 0 4.575-3.063 7.819-7.681 7.819zM28 16h-2v2h-2v-2h-2v-2h2v-2h2v2h2v2z"></path>
</symbol>
<symbol id="icon-steam2" viewBox="0 0 32 32">
<path d="M9.498 26.125c0.848 0 1.681-0.41 2.187-1.169 0.804-1.206 0.478-2.836-0.728-3.64l-2.065-1.377c0.353-0.096 0.725-0.149 1.109-0.149 2.325 0 4.209 1.884 4.209 4.209s-1.885 4.209-4.209 4.209c-2.263 0-4.108-1.785-4.205-4.024l2.249 1.499c0.448 0.298 0.953 0.441 1.454 0.441zM26.667 0c2.934 0 5.333 2.4 5.333 5.334v21.332c0 2.936-2.399 5.334-5.333 5.334h-21.333c-2.934 0-5.334-2.398-5.334-5.334v-6.345l3.792 2.528c-0.364 1.974 0.217 4.088 1.744 5.615 2.466 2.466 6.463 2.466 8.929 0 1.515-1.515 2.098-3.607 1.752-5.568l7.783-6.968c1.445-0.207 2.838-0.867 3.95-1.979 2.734-2.734 2.734-7.166 0-9.899s-7.166-2.734-9.9 0c-1.112 1.112-1.771 2.505-1.979 3.95v0l-6.397 9.695c-0.995 0.051-1.981 0.336-2.866 0.856l-6.808-4.539v-8.678c0-2.934 2.4-5.334 5.334-5.334h21.333zM28 9c0-2.761-2.239-5-5-5s-5 2.239-5 5 2.239 5 5 5 5-2.239 5-5zM20 9c0-1.657 1.343-3 3-3s3 1.343 3 3-1.343 3-3 3-3-1.343-3-3z"></path>
</symbol>
<symbol id="icon-npm" viewBox="0 0 32 32">
<path d="M0 0v32h32v-32h-32zM26 26h-4v-16h-6v16h-10v-20h20v20z"></path>
</symbol>
<symbol id="icon-xing" viewBox="0 0 32 32">
<path d="M29 0h-26c-1.65 0-3 1.35-3 3v26c0 1.65 1.35 3 3 3h26c1.65 0 3-1.35 3-3v-26c0-1.65-1.35-3-3-3zM9.769 20.813h-3.456c-0.206 0-0.362-0.094-0.45-0.238-0.094-0.15-0.094-0.337 0-0.531l3.675-6.488c0.006-0.006 0.006-0.012 0-0.019l-2.338-4.050c-0.094-0.194-0.112-0.381-0.019-0.531 0.088-0.144 0.263-0.219 0.475-0.219h3.462c0.531 0 0.794 0.344 0.963 0.65 0 0 2.363 4.125 2.381 4.15-0.137 0.25-3.737 6.606-3.737 6.606-0.188 0.325-0.438 0.669-0.956 0.669zM26.137 4.756l-7.662 13.55c-0.006 0.006-0.006 0.019 0 0.025l4.881 8.913c0.094 0.194 0.1 0.387 0.006 0.538-0.087 0.144-0.25 0.219-0.462 0.219h-3.456c-0.531 0-0.794-0.35-0.969-0.656 0 0-4.906-9-4.919-9.025 0.244-0.431 7.7-13.656 7.7-13.656 0.188-0.331 0.413-0.656 0.925-0.656h3.506c0.206 0 0.375 0.081 0.462 0.219 0.087 0.144 0.087 0.338-0.012 0.531z"></path>
</symbol>
<symbol id="icon-html-five" viewBox="0 0 32 32">
<path d="M1.892 0l2.567 28.801 11.524 3.199 11.554-3.204 2.572-28.796h-28.216zM24.52 9.42h-13.517l0.322 3.617h12.874l-0.97 10.844-7.245 2.008-7.237-2.008-0.495-5.547h3.547l0.252 2.82 3.933 1.060 0.009-0.002 3.935-1.062 0.408-4.58h-12.242l-0.953-10.681h17.694l-0.316 3.532z"></path>
</symbol>
</defs>
</svg>
